<?xml version="1.0" encoding="UTF-8" standalone="no"?>
<!-- Created with Inkscape (http://www.inkscape.org/) -->
<svg
   xmlns:dc="http://purl.org/dc/elements/1.1/"
   xmlns:cc="http://creativecommons.org/ns#"
   xmlns:rdf="http://www.w3.org/1999/02/22-rdf-syntax-ns#"
   xmlns:svg="http://www.w3.org/2000/svg"
   xmlns="http://www.w3.org/2000/svg"
   xmlns:xlink="http://www.w3.org/1999/xlink"
   xmlns:sodipodi="http://sodipodi.sourceforge.net/DTD/sodipodi-0.dtd"
   xmlns:inkscape="http://www.inkscape.org/namespaces/inkscape"
   width="10.000000cm"
   height="10.000000cm"
   id="svg2455"
   sodipodi:version="0.32"
   inkscape:version="0.46"
   sodipodi:docbase="/home/matt/projects/opencheesemap/openstreetmap/java/html-images"
   sodipodi:docname="OpenStreetMap-Logo_inkscape.svg"
   inkscape:export-filename="/home/matt/projects/opencheesemap/icon/mag_map.png"
   inkscape:export-xdpi="130.04802"
   inkscape:export-ydpi="130.04802"
   inkscape:output_extension="org.inkscape.output.svg.inkscape">
  <defs
     id="defs3">
    <inkscape:perspective
       sodipodi:type="inkscape:persp3d"
       inkscape:vp_x="0 : 177.16536 : 1"
       inkscape:vp_y="0 : 1000 : 0"
       inkscape:vp_z="354.33072 : 177.16536 : 1"
       inkscape:persp3d-origin="177.16536 : 118.11024 : 1"
       id="perspective2682" />
    <linearGradient
       id="linearGradient2419">
      <stop
         style="stop-color:#000000;stop-opacity:0.50515461;"
         offset="0.0000000"
         id="stop2420" />
      <stop
         style="stop-color:#000000;stop-opacity:0.0000000;"
         offset="1.0000000"
         id="stop2421" />
    </linearGradient>
    <linearGradient
       inkscape:collect="always"
       xlink:href="#linearGradient2419"
       id="linearGradient2422"
       gradientTransform="scale(1.195930,0.836169)"
       x1="156.33753"
       y1="184.92068"
       x2="264.56920"
       y2="184.92068"
       gradientUnits="userSpaceOnUse" />
    <linearGradient
       id="linearGradient2411">
      <stop
         style="stop-color:#ffffff;stop-opacity:1.0000000;"
         offset="0.0000000"
         id="stop2412" />
      <stop
         style="stop-color:#ffffff;stop-opacity:0.0000000;"
         offset="1.0000000"
         id="stop2413" />
    </linearGradient>
    <radialGradient
       inkscape:collect="always"
       xlink:href="#linearGradient2411"
       id="radialGradient2415"
       cx="212.59842"
       cy="70.866119"
       fx="212.59842"
       fy="70.866119"
       r="35.433071"
       gradientUnits="userSpaceOnUse" />
    <linearGradient
       inkscape:collect="always"
       xlink:href="#linearGradient1767"
       id="linearGradient1779"
       gradientUnits="userSpaceOnUse"
       gradientTransform="scale(0.689104,1.451160)"
       x1="414.13153"
       y1="240.14357"
       x2="302.99097"
       y2="240.80186" />
    <linearGradient
       id="linearGradient1767">
      <stop
         style="stop-color:#3f3318;stop-opacity:1.0000000;"
         offset="0.0000000"
         id="stop1768" />
      <stop
         style="stop-color:#815f0e;stop-opacity:1.0000000;"
         offset="1.0000000"
         id="stop1769" />
    </linearGradient>
    <linearGradient
       inkscape:collect="always"
       xlink:href="#linearGradient1767"
       id="linearGradient1778"
       gradientUnits="userSpaceOnUse"
       gradientTransform="matrix(0.697599,2.286358e-18,4.823872e-18,1.471830,-3.876056e-17,-11.82638)"
       x1="299.37338"
       y1="252.27031"
       x2="411.72696"
       y2="252.27031" />
    <linearGradient
       id="linearGradient1754">
      <stop
         style="stop-color:#747474;stop-opacity:1.0000000;"
         offset="0.0000000"
         id="stop1755" />
      <stop
         style="stop-color:#bebebe;stop-opacity:1.0000000;"
         offset="0.50000000"
         id="stop1757" />
      <stop
         style="stop-color:#d5d5d5;stop-opacity:1.0000000;"
         offset="0.62500000"
         id="stop1759" />
      <stop
         style="stop-color:#818181;stop-opacity:1.0000000;"
         offset="0.75000000"
         id="stop1758" />
      <stop
         style="stop-color:#c3c3c3;stop-opacity:1.0000000;"
         offset="1.0000000"
         id="stop1756" />
    </linearGradient>
    <linearGradient
       inkscape:collect="always"
       xlink:href="#linearGradient1754"
       id="linearGradient1777"
       gradientUnits="userSpaceOnUse"
       gradientTransform="scale(1.000071,0.999929)"
       x1="150.49463"
       y1="42.808048"
       x2="345.53265"
       y2="242.17987" />
    <pattern
       patternUnits="userSpaceOnUse"
       width="28.945312"
       height="33.076172"
       patternTransform="translate(190.4901,70.84341)"
       id="pattern2568">
      <text
         xml:space="preserve"
         style="font-size:12.000000;font-style:normal;font-weight:normal;fill:#000000;fill-opacity:1.0000000;stroke:none;stroke-width:1.0000000pt;stroke-linecap:butt;stroke-linejoin:miter;stroke-opacity:1.0000000;font-family:Bitstream Vera Sans"
         x="189.69904"
         y="67.749657"
         id="text2569"
         transform="translate(-190.4901,-70.84341)"><tspan
           sodipodi:role="line"
           id="tspan2570"
           x="189.69904"
           y="67.749657" /><tspan
           sodipodi:role="line"
           id="tspan2576"
           x="189.69904"
           y="79.749657">0010</tspan><tspan
           sodipodi:role="line"
           id="tspan2578"
           x="189.69904"
           y="91.749657">0100</tspan><tspan
           sodipodi:role="line"
           id="tspan2580"
           x="189.69904"
           y="103.74966">0111</tspan><tspan
           sodipodi:role="line"
           id="tspan2582"
           x="189.69904"
           y="115.74966" /></text>
    </pattern>
    <pattern
       patternUnits="userSpaceOnUse"
       width="32.232422"
       height="37.876175"
       patternTransform="translate(183.7668,59.46841)"
       id="pattern2606">
      <text
         xml:space="preserve"
         style="font-size:12.000000;font-style:normal;font-weight:bold;fill:#000000;fill-opacity:1.0000000;stroke:none;stroke-width:1.0000000pt;stroke-linecap:butt;stroke-linejoin:miter;stroke-opacity:1.0000000;font-family:Bitstream Vera Sans;font-stretch:normal;font-variant:normal;text-anchor:middle;writing-mode:lr;"
         x="189.69904"
         y="67.749657"
         id="text2607"
         transform="translate(-173.5858,-58.84341)"
         sodipodi:linespacing="120%"><tspan
           x="189.69904"
           y="67.749657"
           sodipodi:role="line"
           id="tspan2608">0010</tspan><tspan
           x="189.69904"
           y="82.149657"
           sodipodi:role="line"
           id="tspan2610">0100</tspan><tspan
           x="189.69904"
           y="96.549658"
           sodipodi:role="line"
           id="tspan2612">0111</tspan></text>
    </pattern>
    <pattern
       patternUnits="userSpaceOnUse"
       width="32.232422"
       height="28.276169"
       patternTransform="translate(183.7668,59.46841)"
       id="pattern2623">
      <text
         xml:space="preserve"
         style="font-size:12.000000;font-style:normal;font-variant:normal;font-weight:bold;font-stretch:normal;fill:#000000;fill-opacity:1.0000000;stroke:none;stroke-width:1.0000000pt;stroke-linecap:butt;stroke-linejoin:miter;stroke-opacity:1.0000000;font-family:Bitstream Vera Sans;text-anchor:middle;writing-mode:lr;"
         x="189.69904"
         y="67.749657"
         id="text2624"
         transform="translate(-173.5858,-58.84341)"
         sodipodi:linespacing="80%"><tspan
           x="189.69904"
           y="67.749657"
           sodipodi:role="line"
           id="tspan2625">0010</tspan><tspan
           x="189.69904"
           y="77.349657"
           sodipodi:role="line"
           id="tspan2627">0100</tspan><tspan
           x="189.69904"
           y="86.949657"
           sodipodi:role="line"
           id="tspan2629">0111</tspan></text>
    </pattern>
    <pattern
       patternUnits="userSpaceOnUse"
       width="32.232422"
       height="25.876175"
       patternTransform="translate(183.7668,59.46841)"
       id="pattern2639">
      <text
         xml:space="preserve"
         style="font-size:12.000000;font-style:normal;font-variant:normal;font-weight:bold;font-stretch:normal;fill:#000000;fill-opacity:1.0000000;stroke:none;stroke-width:1.0000000pt;stroke-linecap:butt;stroke-linejoin:miter;stroke-opacity:1.0000000;font-family:Bitstream Vera Sans;text-anchor:middle;writing-mode:lr;"
         x="189.69904"
         y="67.749657"
         id="text2640"
         transform="translate(-173.5858,-58.84341)"
         sodipodi:linespacing="70%"><tspan
           x="189.69904"
           y="67.749657"
           sodipodi:role="line"
           id="tspan2641">0010</tspan><tspan
           x="189.69904"
           y="76.149656"
           sodipodi:role="line"
           id="tspan2643">0100</tspan><tspan
           x="189.69904"
           y="84.549656"
           sodipodi:role="line"
           id="tspan2645">0111</tspan></text>
    </pattern>
    <pattern
       patternUnits="userSpaceOnUse"
       width="96.697266"
       height="77.628510"
       patternTransform="translate(151.5402,41.65591)"
       id="pattern2692">
      <text
         xml:space="preserve"
         style="font-size:36.000000;font-style:normal;font-variant:normal;font-weight:bold;font-stretch:normal;fill:#000000;fill-opacity:1.0000000;stroke:none;stroke-width:1.0000000pt;stroke-linecap:butt;stroke-linejoin:miter;stroke-opacity:1.0000000;font-family:Bitstream Vera Sans;text-anchor:middle;writing-mode:lr;"
         x="189.69904"
         y="67.749657"
         id="text2693"
         transform="translate(-141.3592,-41.03091)"
         sodipodi:linespacing="70%"><tspan
           x="189.69904"
           y="67.749657"
           sodipodi:role="line"
           id="tspan2694">0010</tspan><tspan
           x="189.69904"
           y="92.949656"
           sodipodi:role="line"
           id="tspan2696">0100</tspan><tspan
           x="189.69904"
           y="118.14965"
           sodipodi:role="line"
           id="tspan2698">0111</tspan></text>
    </pattern>
  </defs>
  <sodipodi:namedview
     id="base"
     pagecolor="#ffffff"
     bordercolor="#666666"
     borderopacity="1.0"
     inkscape:pageopacity="0.0"
     inkscape:pageshadow="2"
     inkscape:zoom="1.9640103"
     inkscape:cx="174"
     inkscape:cy="176.5"
     inkscape:current-layer="layer5"
     showgrid="true"
     inkscape:grid-bbox="true"
     inkscape:grid-points="true"
     inkscape:window-width="1280"
     inkscape:window-height="977"
     inkscape:window-x="-4"
     inkscape:window-y="-4"
     showguides="true"
     inkscape:guide-bbox="true" />
  <metadata
     id="metadata4">
    <rdf:RDF>
      <cc:Work
         rdf:about="">
        <dc:format>image/svg+xml</dc:format>
        <dc:type
           rdf:resource="http://purl.org/dc/dcmitype/StillImage" />
      </cc:Work>
    </rdf:RDF>
  </metadata>
  <g
     inkscape:groupmode="layer"
     id="layer4"
     inkscape:label="Map"
     style="display:block"
     sodipodi:insensitive="true">
    <path
       style="fill:#ffffff;fill-opacity:1;fill-rule:evenodd;stroke:#000000;stroke-width:6.25;stroke-linecap:butt;stroke-linejoin:miter;stroke-miterlimit:4;stroke-opacity:1"
       d="M 17.61491,18.292406 L 88.582677,35.433051 L 159.44882,17.716515 L 230.31496,35.433051 L 301.1811,17.716515 L 318.89764,88.582657 L 301.1811,159.4488 L 318.89764,230.31494 L 301.1811,301.18108 L 230.31496,318.89762 L 159.44882,301.18108 L 88.582677,318.89762 L 17.716535,301.18108 L 35.433071,230.31494 L 17.716535,159.4488 L 35.433071,88.582657 L 17.61491,18.292406 z"
       id="path2522"
       sodipodi:nodetypes="ccccccccccccccccc" />
    <path
       style="fill:#e3ffc5;fill-opacity:1;fill-rule:evenodd;stroke:#000000;stroke-width:0.25pt;stroke-linecap:butt;stroke-linejoin:miter;stroke-opacity:1"
       d="M 19.6474,302.16346 L 35.433071,230.31494 L 17.716535,159.4488 L 35.433071,88.582657 L 17.716535,17.716515 L 88.582677,35.433051 L 159.44882,17.716515 L 230.31496,35.433051 L 301.1811,17.716515 L 318.89764,88.582657 L 301.1811,159.4488 L 318.89764,230.31494 L 301.1811,301.18108 L 230.31496,318.89762 L 159.44882,301.18108 L 88.582677,318.89762 L 19.6474,302.16346 z"
       id="path1278" />
    <path
       style="fill:#91d55d;fill-opacity:1;fill-rule:evenodd;stroke:none;stroke-width:1pt;stroke-linecap:butt;stroke-linejoin:miter;stroke-opacity:1"
       d="M 194.88189,141.73226 C 194.88189,139.42878 194.88189,137.12529 194.88189,134.82181 C 194.88189,124.88451 193.12345,124.01573 183.60156,124.01573 C 168.88499,124.01573 186.23563,141.73226 168.01914,141.73226 C 153.19211,141.73226 180.78317,107.0705 113.14192,148.37174 C 99.587288,156.6481 107.0624,141.73226 115.17441,141.73226 C 127.46738,141.73226 127.44018,124.01573 115.85191,124.01573 C 112.00344,124.01573 124.01575,119.70037 124.01575,115.85191 C 124.01575,108.06121 152.92157,98.914494 134.82181,98.914494 C 127.5373,98.914494 124.01575,112.14706 124.01575,94.849515 C 124.01575,86.735407 140.57256,78.898609 124.01575,77.234605 C 121.90356,77.022325 124.01575,72.988949 124.01575,70.866122 C 124.01575,67.241513 109.51731,70.866122 113.14192,70.866122 C 123.08965,70.866122 124.01575,69.167545 124.01575,59.619695 C 124.01575,54.176222 94.883157,45.845075 113.14192,44.037275 C 159.26796,39.470336 125.73669,17.716515 159.44882,17.716515 C 170.78539,17.716515 141.73228,35.410694 141.73228,46.747261 C 141.73228,62.199905 159.44882,43.344502 159.44882,61.652185 C 159.44882,80.802288 186.71647,78.589598 205.28145,78.589598 C 207.72044,78.589598 210.15943,78.589598 212.59843,78.589598 C 217.79257,78.589598 212.59843,68.201318 212.59843,63.007178 C 212.59843,48.581219 258.71934,39.283702 254.7387,53.149586 C 252.90251,59.545614 237.40329,60.213758 230.31496,62.329681 C 217.5932,66.127229 270.26349,116.5294 239.83377,116.5294 C 224.51505,116.5294 234.37404,106.29919 220.18637,106.29919 C 212.18624,106.29919 248.0315,123.62098 248.0315,141.73226 C 248.0315,152.73034 223.34022,134.89556 212.59843,132.78932 C 208.07111,131.90161 206.50749,124.01573 201.89397,124.01573 C 179.80637,124.01573 212.59843,154.56515 212.59843,159.4488 C 212.59843,161.75228 217.20539,159.4488 219.50888,159.4488 C 224.74013,159.4488 194.88189,167.13135 194.88189,149.72673 C 194.88189,147.06191 194.88189,144.39709 194.88189,141.73226 z"
       id="path2682" />
    <path
       style="fill:#72acff;fill-opacity:1;fill-rule:evenodd;stroke:none;stroke-width:1pt;stroke-linecap:butt;stroke-linejoin:miter;stroke-opacity:1"
       d="M 159.44882,141.73226 C 171.33207,141.9328 177.16535,143.66057 177.16535,130.75683 C 177.16535,99.780679 205.28145,98.806371 205.28145,124.01573 C 205.28145,128.36582 212.59843,130.47172 212.59843,134.82181 C 212.59843,149.97774 216.5303,153.11422 201.89397,153.11422 C 199.55661,153.11422 197.21925,153.11422 194.88189,153.11422 C 191.27609,153.11422 205.45882,126.91819 185.63405,141.73226 C 178.3235,147.19507 168.41817,148.04235 159.44882,149.72673 C 151.83874,151.15586 141.73228,153.35155 141.73228,141.73226 C 141.73228,131.20082 124.01575,100.49766 124.01575,115.17441 C 124.01575,121.26334 148.65264,130.77651 149.72673,141.73226 C 150.04293,144.9575 156.20812,141.73226 159.44882,141.73226 z"
       id="path1901" />
    <path
       style="fill:#999999;fill-opacity:1;fill-rule:evenodd;stroke:none;stroke-width:0.25pt;stroke-linecap:butt;stroke-linejoin:miter;stroke-opacity:1"
       d="M 106.36696,194.44151 L 114.49691,177.16533 L 113.81942,194.88187 L 124.01575,184.27906 L 141.73228,177.16533 L 132.11182,194.88187 L 141.73228,188.34404 L 150.40423,194.88187 L 159.44882,194.88187 L 148.37174,212.59841 L 141.73228,220.86387 L 132.78932,212.59841 L 124.01575,220.86387 L 124.01575,230.31494 L 106.29921,230.31494 L 124.01575,212.59841 L 106.29921,212.59841 L 99.591991,194.88187 L 106.36696,194.44151 z"
       id="path2680" />
    <path
       style="fill:none;fill-opacity:0.75;fill-rule:evenodd;stroke:#ff0000;stroke-width:2.5;stroke-linecap:butt;stroke-linejoin:miter;stroke-miterlimit:4;stroke-opacity:1"
       d="M 63.007178,31.842337 L 53.149606,53.149586 L 70.866142,61.652185 L 70.866142,88.582657 L 53.149606,113.14192 L 53.149606,130.75683 L 88.582677,150.40423 L 70.866142,167.34164 L 70.866142,177.16533 L 88.582677,194.88187 L 106.29921,177.16533 L 124.01575,194.88187 L 141.73228,237.12379 L 124.01575,283.46455 L 132.11182,283.46455 L 133.46682,307.58343"
       id="path2683" />
    <path
       style="fill:none;fill-opacity:0.75;fill-rule:evenodd;stroke:#ff0000;stroke-width:2.5;stroke-linecap:butt;stroke-linejoin:miter;stroke-miterlimit:4;stroke-dasharray:none;stroke-opacity:1"
       d="M 35.22982,302.84095 L 53.149606,283.46455 L 70.866142,301.18108 L 106.29921,283.46455 L 106.29921,265.74801 L 159.44882,283.46455 L 194.88189,283.46455 L 194.88189,265.74801 L 177.16535,248.03148 L 194.88189,212.59841 L 212.59843,194.88187 L 230.31496,212.59841 L 230.31496,230.31494 L 248.0315,230.31494 L 265.74803,212.59841 L 301.1811,212.59841 L 312.3259,201.89397"
       id="path1900" />
    <path
       style="fill:none;fill-opacity:0.75;fill-rule:evenodd;stroke:#243eb4;stroke-width:1pt;stroke-linecap:butt;stroke-linejoin:miter;stroke-opacity:1"
       d="M 27.303113,194.88187 C 38.817654,195.35339 43.339928,219.42161 53.149606,223.57386 C 63.812267,228.08715 66.049566,230.31494 81.299584,230.31494 C 93.699199,230.31494 82.541881,219.50888 98.236998,219.50888 C 105.8529,219.50888 124.01575,206.60286 124.01575,194.88187 C 124.01575,191.65693 150.57192,198.33835 152.43672,202.57146 C 155.58682,209.72221 170.05163,207.6289 170.05163,219.50888 C 170.05163,234.50572 159.44882,227.22554 159.44882,237.12379 C 159.44882,250.12369 153.3615,248.03148 141.73228,248.03148 C 136.88951,248.03148 137.42397,258.07673 132.78932,259.48117 C 116.61859,264.38139 142.91088,266.9206 148.37174,272.35361 C 151.1948,275.16227 164.7048,276.15658 168.01914,276.41859 C 177.32113,277.15392 178.86646,274.05685 187.66654,272.35361 C 206.80252,268.64987 203.24896,257.90384 203.24896,241.18877 C 203.24896,231.65865 203.24896,222.12853 203.24896,212.59841 C 203.24896,210.07117 219.5092,230.31494 220.18637,230.31494 C 227.41395,230.31494 238.32819,221.04495 239.15628,212.59841 C 239.59179,208.15616 248.0315,207.03501 248.0315,202.57146 C 248.0315,202.1198 248.0315,201.66814 248.0315,201.21647 C 248.0315,185.1233 241.52235,159.4488 259.48117,159.4488 C 267.19863,159.4488 266.66864,141.73226 274.3861,141.73226 C 280.33034,141.73226 275.02262,129.32708 272.35361,124.01573 C 268.08495,115.52109 256.83967,106.29919 275.74109,106.29919 C 286.64496,106.29919 286.31103,88.582657 276.41859,88.582657 C 269.19196,88.582657 261.96533,88.582657 254.7387,88.582657 C 191.07954,88.582657 223.21833,70.866122 205.28145,70.866122 C 201.67439,70.866122 194.88189,59.448193 194.88189,53.149586 C 194.88189,45.879313 230.31496,65.660553 230.31496,35.433051 C 230.31496,35.433051 230.31496,35.433051 230.31496,35.433051"
       id="path2679"
       sodipodi:nodetypes="ccccccccccccccccccccccccccccc" />
    <g
       id="g1922">
      <path
         style="fill:none;fill-opacity:0.75;fill-rule:evenodd;stroke:#826d35;stroke-width:0.375;stroke-linecap:butt;stroke-linejoin:miter;stroke-miterlimit:4;stroke-dasharray:none;stroke-opacity:1"
         d="M 17.716535,159.4488 C 15.536826,150.48476 36.167024,159.4488 45.392268,159.4488 C 61.447424,159.4488 44.647709,177.16533 60.974688,177.16533 C 70.177351,177.16533 79.380014,177.16533 88.582677,177.16533 C 90.187689,177.16533 83.787935,159.4488 96.882005,159.4488 C 104.66707,159.4488 103.20723,124.01573 113.14192,124.01573 C 116.70051,124.01573 116.89475,102.31693 117.2069,98.914494 C 118.85911,80.90542 141.73228,73.689901 141.73228,46.069764 C 141.73228,36.618681 141.73228,33.942563 141.73228,24.49148"
         id="path1903"
         sodipodi:nodetypes="ccccccccc" />
      <path
         style="fill:none;fill-opacity:0.75;fill-rule:evenodd;stroke:#826d35;stroke-width:0.375;stroke-linecap:butt;stroke-linejoin:miter;stroke-miterlimit:4;stroke-dasharray:none;stroke-opacity:1"
         d="M 25.067372,141.73226 C 25.067372,129.76316 49.005583,141.73226 60.974688,141.73226 C 85.48122,141.73226 73.116804,135.51556 88.582677,130.75683 C 102.01771,126.62298 72.648838,106.29919 96.204508,106.29919 C 99.223782,106.29919 92.127469,88.582657 106.29921,88.582657 C 120.69601,88.582657 106.29921,59.789064 106.29921,45.392268 C 106.29921,42.072529 106.29921,38.75279 106.29921,35.433051"
         id="path1904"
         sodipodi:nodetypes="ccccccc" />
      <path
         style="fill:none;fill-opacity:0.75;fill-rule:evenodd;stroke:#826d35;stroke-width:0.375;stroke-linecap:butt;stroke-linejoin:miter;stroke-miterlimit:4;stroke-dasharray:none;stroke-opacity:1"
         d="M 177.16535,17.716515 C 177.16535,26.715934 177.16535,35.715353 177.16535,44.714771 C 177.16535,63.269426 159.44882,43.478141 159.44882,60.297192 C 159.44882,71.107216 159.07359,77.416902 151.08173,81.299584 C 144.68546,84.407078 139.74647,101.3473 134.14431,106.29919 C 122.78633,116.3388 117.2069,104.03122 117.2069,124.01573 C 117.2069,128.27316 124.01575,130.56438 124.01575,134.82181 C 124.01575,158.44417 106.29921,150.4714 106.29921,168.69664 C 106.29921,179.64767 88.582677,175.51083 88.582677,194.88187 C 88.582677,201.31965 77.188086,201.35571 70.866142,202.57146 C 69.71445,202.79294 66.899622,212.59841 53.149606,212.59841 C 52.795681,212.59841 56.03717,194.88187 43.359778,194.88187 C 37.311239,194.88187 27.863071,184.72905 26.422365,177.16533 C 26.41363,177.11948 24.532362,177.16533 24.389875,177.16533"
         id="path1905" />
      <path
         style="fill:none;fill-opacity:0.75;fill-rule:evenodd;stroke:#826d35;stroke-width:0.375;stroke-linecap:butt;stroke-linejoin:miter;stroke-miterlimit:4;stroke-dasharray:none;stroke-opacity:1"
         d="M 35.433071,248.03148 C 33.832389,239.62788 49.511607,265.74801 60.297192,265.74801 C 74.11517,265.74801 79.500559,268.35153 88.582677,258.80368 C 91.559171,255.67455 97.392815,251.14174 99.591991,248.03148 C 106.69472,237.98618 106.29921,275.70718 106.29921,275.74109 C 106.29921,281.36799 118.27199,290.96395 124.01575,292.6785 C 132.836,295.31141 144.14453,291.84833 152.43672,291.32351 C 154.76942,291.17587 157.11145,291.32351 159.44882,291.32351 C 162.73468,291.32351 159.44882,297.89522 159.44882,301.18108"
         id="path1906" />
      <path
         style="fill:none;fill-opacity:0.75;fill-rule:evenodd;stroke:#826d35;stroke-width:0.375;stroke-linecap:butt;stroke-linejoin:miter;stroke-miterlimit:4;stroke-dasharray:none;stroke-opacity:1"
         d="M 167.6804,301.18108 C 174.56829,301.18108 181.45616,301.18108 183.60156,301.18108 C 193.39581,301.18108 201.86365,293.62789 212.59843,290.64601 C 214.90492,290.00532 212.59843,285.85837 212.59843,283.46455 C 212.59843,276.82884 230.31496,281.02181 230.31496,274.3861 C 230.31496,241.11193 243.50852,255.85763 265.74803,239.12239 C 274.7983,232.31206 280.95699,246.70871 283.46457,221.50749 C 283.67812,219.36139 299.0244,230.31494 301.1811,230.31494 C 315.4556,230.31494 296.91612,201.97502 292.6785,188.34404 C 291.33429,184.02014 300.24443,178.17905 301.1811,177.16533"
         id="path1907"
         sodipodi:nodetypes="cccccccccc" />
      <path
         style="fill:none;fill-opacity:0.75;fill-rule:evenodd;stroke:#826d35;stroke-width:0.375;stroke-linecap:butt;stroke-linejoin:miter;stroke-miterlimit:4;stroke-dasharray:none;stroke-opacity:1"
         d="M 212.59843,312.3259 C 210.99182,307.15799 268.23795,265.74801 276.41859,265.74801 C 287.48436,265.74801 298.55014,265.74801 309.61592,265.74801"
         id="path1908" />
    </g>
    <g
       id="g2671">
      <path
         style="opacity:0.32926827;fill:none;fill-opacity:0.75;fill-rule:evenodd;stroke:#000000;stroke-width:1.25;stroke-linecap:butt;stroke-linejoin:miter;stroke-miterlimit:4;stroke-dasharray:10, 1.25;stroke-dashoffset:0;stroke-opacity:1"
         d="M 35.907316,88.752046 L 106.29921,106.29919 L 177.16535,88.582657 L 248.0315,106.29919 L 318.89764,88.582657"
         id="path2523" />
      <path
         style="opacity:0.32926827;fill:none;fill-opacity:0.75;fill-rule:evenodd;stroke:#000000;stroke-width:1.25;stroke-linecap:butt;stroke-linejoin:miter;stroke-miterlimit:4;stroke-dasharray:10, 1.25;stroke-dashoffset:0;stroke-opacity:1"
         d="M 87.397053,36.584813 L 106.29921,106.29919 L 88.582677,177.16533 L 106.29921,248.03148 L 88.582677,318.89762"
         id="path2524" />
      <path
         style="opacity:0.32926827;fill:none;fill-opacity:0.75;fill-rule:evenodd;stroke:#000000;stroke-width:1.25;stroke-linecap:butt;stroke-linejoin:miter;stroke-miterlimit:4;stroke-dasharray:10, 1.25;stroke-dashoffset:0;stroke-opacity:1"
         d="M 158.10695,18.868282 L 177.0091,88.582659 L 159.29257,159.4488 L 177.0091,230.31495 L 159.29257,301.18109"
         id="path2525" />
      <path
         style="opacity:0.32926827;fill:none;fill-opacity:0.75;fill-rule:evenodd;stroke:#000000;stroke-width:1.25;stroke-linecap:butt;stroke-linejoin:miter;stroke-miterlimit:4;stroke-dasharray:10, 1.25;stroke-dashoffset:0;stroke-opacity:1"
         d="M 229.12935,36.584816 L 248.0315,106.29919 L 230.31497,177.16533 L 248.0315,248.03148 L 230.31497,318.89762"
         id="path2526" />
      <path
         style="opacity:0.32926827;fill:none;fill-opacity:0.75;fill-rule:evenodd;stroke:#000000;stroke-width:1.25;stroke-linecap:butt;stroke-linejoin:miter;stroke-miterlimit:4;stroke-dasharray:10, 1.25;stroke-dashoffset:0;stroke-opacity:1"
         d="M 17.716535,159.77444 L 88.108429,177.32158 L 158.97457,159.60505 L 229.84072,177.32158 L 300.70686,159.60505"
         id="path2527" />
      <path
         style="opacity:0.32926827;fill:none;fill-opacity:0.75;fill-rule:evenodd;stroke:#000000;stroke-width:1.25;stroke-linecap:butt;stroke-linejoin:miter;stroke-miterlimit:4;stroke-dasharray:10, 1.25;stroke-dashoffset:0;stroke-opacity:1"
         d="M 35.433071,230.31494 L 105.82496,247.86208 L 176.69111,230.14555 L 247.55726,247.86208 L 318.4234,230.14555"
         id="path2528" />
      <path
         style="fill:none;fill-opacity:1;fill-rule:evenodd;stroke:#000000;stroke-width:6.25;stroke-linecap:butt;stroke-linejoin:miter;stroke-miterlimit:4;stroke-opacity:1"
         d="M 17.61491,18.292406 L 88.582677,35.433051 L 159.44882,17.716515 L 230.31496,35.433051 L 301.1811,17.716515 L 318.89764,88.582657 L 301.1811,159.4488 L 318.89764,230.31494 L 301.1811,301.18108 L 230.31496,318.89762 L 159.44882,301.18108 L 88.582677,318.89762 L 17.716535,301.18108 L 35.433071,230.31494 L 17.716535,159.4488 L 35.433071,88.582657 L 17.61491,18.292406 z"
         id="path2670"
         sodipodi:nodetypes="ccccccccccccccccc" />
    </g>
  </g>
  <g
     inkscape:groupmode="layer"
     id="layer5"
     inkscape:label="Data"
     style="display:block"
     sodipodi:insensitive="true">
    <path
       sodipodi:type="arc"
       style="opacity:0.32926827;fill:none;fill-opacity:1;stroke:none;stroke-width:1.25;stroke-linecap:butt;stroke-linejoin:round;stroke-miterlimit:4;stroke-dasharray:10, 1.25;stroke-dashoffset:0;stroke-opacity:1"
       id="path2538"
       sodipodi:cx="224.91193"
       sodipodi:cy="118.61269"
       sodipodi:rx="100.89618"
       sodipodi:ry="100.89618"
       d="M 325.80811,118.61269 A 100.89618,100.89618 0 1 1 124.01575,118.61269 A 100.89618,100.89618 0 1 1 325.80811,118.61269 z"
       transform="translate(10.18107,0.625001)" />
    <rect
       style="fill:none;stroke:none"
       width="32.232422"
       height="37.876175"
       x="183.76682"
       y="59.468407"
       id="rect2614" />
    <rect
       style="fill:none;stroke:none"
       width="32.232422"
       height="28.276169"
       x="183.76675"
       y="59.468407"
       id="rect2631" />
    <rect
       style="opacity:0.35975611;fill:none;fill-opacity:1;stroke:none;stroke-width:2.5;stroke-linecap:butt;stroke-linejoin:round;stroke-miterlimit:4;stroke-dashoffset:0;stroke-opacity:1"
       id="rect2684"
       width="74.52462"
       height="53.149605"
       x="379.39807"
       y="159.44879" />
    <g
       id="g2684"
       style="display:block"
       transform="translate(2.9863669e-2,7.1676013e-2)">
      <path
         d="M 325.80811,118.61269 C 325.80811,174.33611 280.63535,219.50887 224.91193,219.50887 C 169.18851,219.50887 124.01575,174.33611 124.01575,118.61269 C 124.01575,62.889267 169.18851,17.716507 224.91193,17.716507 C 280.63535,17.716507 325.80811,62.889267 325.80811,118.61269 L 325.80811,118.61269 z"
         transform="translate(10.18107,0.625001)"
         id="path2686"
         style="opacity:0.32926827;fill:none;fill-opacity:1;stroke:none;stroke-width:1.25;stroke-linecap:butt;stroke-linejoin:round;stroke-miterlimit:4;stroke-dasharray:10, 1.25;stroke-dashoffset:0;stroke-opacity:1" />
      <rect
         width="32.232422"
         height="37.876175"
         x="183.76682"
         y="59.468407"
         id="rect2688"
         style="fill:none;stroke:none" />
      <rect
         width="32.232422"
         height="28.276169"
         x="183.76675"
         y="59.468407"
         id="rect2690"
         style="fill:none;stroke:none" />
      <rect
         width="74.52462"
         height="53.149605"
         x="379.39807"
         y="159.44879"
         id="rect2692"
         style="opacity:0.35975611;fill:none;fill-opacity:1;stroke:none;stroke-width:2.5;stroke-linecap:butt;stroke-linejoin:round;stroke-miterlimit:4;stroke-dashoffset:0;stroke-opacity:1" />
      <path
         d="M 265.26949,26.068453 C 265.26949,26.387351 265.26949,26.706249 265.26949,27.025146 C 265.26949,30.355855 265.58839,32.694438 266.19075,34.076328 C 266.82854,35.422784 267.8561,36.096013 269.30886,36.096013 C 270.76161,36.096013 271.82461,35.422784 272.42697,34.076328 C 272.92303,33.013335 273.2065,31.312548 273.31279,29.044831 C 275.47421,29.930658 277.56476,30.922784 279.65531,31.985776 C 279.19468,34.040894 278.41516,35.812548 277.31673,37.194438 C 275.43878,39.53302 272.7813,40.737745 269.30886,40.737745 C 265.83642,40.737745 263.1435,39.53302 261.26555,37.194438 C 259.3876,34.820422 258.46634,31.418847 258.46634,27.060579 C 258.46634,26.068453 258.50177,25.11176 258.60807,24.225934 C 260.84035,24.75743 263.07264,25.395225 265.26949,26.068453 z M 311.08445,113.30466 L 317.10807,113.30466 L 317.10807,96.225939 L 310.94272,97.501529 L 310.94272,92.895229 L 317.07264,91.619639 L 323.52146,91.619639 L 323.52146,113.30466 L 329.54508,113.30466 L 329.54508,117.98183 L 311.08445,117.98183 L 311.08445,113.30466 z M 285.9624,113.30466 L 291.95059,113.30466 L 291.95059,96.225939 L 285.78524,97.501529 L 285.78524,92.895229 L 291.91516,91.619639 L 298.39941,91.619639 L 298.39941,113.30466 L 304.42303,113.30466 L 304.42303,117.98183 L 285.9624,117.98183 L 285.9624,113.30466 z M 273.2065,104.76529 C 273.2065,101.47002 272.8876,99.166879 272.2498,97.784989 C 271.64744,96.438529 270.61988,95.765309 269.16713,95.765309 C 267.71437,95.765309 266.68681,96.438529 266.04902,97.784989 C 265.44665,99.166879 265.09232,101.47002 265.09232,104.76529 C 265.09232,108.13144 265.44665,110.47002 266.04902,111.81648 C 266.68681,113.16293 267.71437,113.87159 269.16713,113.87159 C 270.61988,113.87159 271.64744,113.16293 272.2498,111.81648 C 272.8876,110.47002 273.2065,108.13144 273.2065,104.76529 L 273.2065,104.76529 z M 279.97421,104.80073 C 279.97421,109.19443 279.05295,112.56057 277.175,114.97002 C 275.29705,117.3086 272.60413,118.47789 269.16713,118.47789 C 265.69468,118.47789 263.00177,117.3086 261.12382,114.97002 C 259.24587,112.56057 258.32461,109.19443 258.32461,104.80073 C 258.32461,100.44246 259.24587,97.076329 261.12382,94.702309 C 263.00177,92.328299 265.69468,91.159009 269.16713,91.159009 C 272.60413,91.159009 275.29705,92.328299 277.175,94.702309 C 279.05295,97.076329 279.97421,100.44246 279.97421,104.80073 L 279.97421,104.80073 z M 323.48602,79.466091 C 323.48602,78.403099 323.45059,77.410973 323.41516,76.560579 C 325.25768,80.422784 326.8876,84.426721 328.23405,88.536959 C 327.98602,88.926719 327.73799,89.281049 327.48996,89.599949 C 326.42697,90.946409 325.08051,91.938529 323.52146,92.505459 L 323.52146,91.619639 L 317.07264,91.619639 L 314.52146,92.151129 C 313.31673,91.548769 312.28917,90.698379 311.43878,89.599949 C 309.52539,87.261367 308.60413,83.895225 308.60413,79.501524 C 308.60413,75.107824 309.52539,71.741682 311.43878,69.403099 C 312.92697,67.489713 314.91122,66.355855 317.4624,65.966091 C 318.41909,67.45428 319.34035,68.977902 320.22618,70.536957 C 319.97815,70.501524 319.73012,70.466091 319.48209,70.466091 C 317.9939,70.466091 316.93091,71.13932 316.32854,72.485776 C 315.69075,73.832233 315.40728,76.170816 315.40728,79.466091 C 315.40728,82.761367 315.69075,85.135383 316.32854,86.517272 C 316.93091,87.863729 317.9939,88.536959 319.48209,88.536959 C 320.89941,88.536959 321.9624,87.863729 322.56476,86.517272 C 323.20256,85.135383 323.48602,82.761367 323.48602,79.466091 L 323.48602,79.466091 z M 285.9624,87.970029 L 291.95059,87.970029 L 291.95059,70.926721 L 285.78524,72.202312 L 285.78524,67.560579 L 291.91516,66.284989 L 298.39941,66.284989 L 298.39941,87.970029 L 304.42303,87.970029 L 304.42303,92.682629 L 298.39941,92.682629 L 298.39941,91.619639 L 291.91516,91.619639 L 286.81279,92.682629 L 285.9624,92.682629 L 285.9624,87.970029 z M 273.2065,79.466091 C 273.2065,76.170816 272.8876,73.832233 272.2498,72.485776 C 271.64744,71.13932 270.61988,70.466091 269.16713,70.466091 C 267.71437,70.466091 266.68681,71.13932 266.04902,72.485776 C 265.44665,73.832233 265.09232,76.170816 265.09232,79.466091 C 265.09232,82.761367 265.44665,85.135383 266.04902,86.517272 C 266.68681,87.863729 267.71437,88.536959 269.16713,88.536959 C 270.61988,88.536959 271.64744,87.863729 272.2498,86.517272 C 272.8876,85.135383 273.2065,82.761367 273.2065,79.466091 L 273.2065,79.466091 z M 279.97421,79.501524 C 279.97421,83.895225 279.05295,87.261367 277.175,89.599949 C 276.28917,90.733809 275.26161,91.584199 274.02146,92.151129 C 272.63957,91.477899 271.00965,91.159009 269.16713,91.159009 C 267.28917,91.159009 265.65925,91.477899 264.27736,92.151129 C 263.0372,91.584199 262.00965,90.733809 261.12382,89.599949 C 259.24587,87.261367 258.32461,83.895225 258.32461,79.501524 C 258.32461,75.107824 259.24587,71.741682 261.12382,69.403099 C 263.00177,66.99365 265.69468,65.824359 269.16713,65.824359 C 272.60413,65.824359 275.29705,66.99365 277.175,69.403099 C 279.05295,71.741682 279.97421,75.107824 279.97421,79.501524 L 279.97421,79.501524 z M 311.08445,62.670816 L 315.19468,62.670816 C 315.97421,63.769241 316.71831,64.867666 317.4624,65.966091 C 316.00965,66.17869 314.73405,66.674753 313.63563,67.347981 L 311.08445,67.347981 L 311.08445,62.670816 z M 298.36398,54.166879 C 298.36398,50.83617 298.04508,48.53302 297.44272,47.186564 C 296.84035,45.840107 295.74193,45.166879 294.28917,45.166879 C 292.83642,45.166879 291.80886,45.840107 291.17106,47.186564 C 290.5687,48.53302 290.2498,50.83617 290.2498,54.166879 C 290.2498,57.462154 290.5687,59.800737 291.17106,61.21806 C 291.80886,62.564516 292.83642,63.237745 294.28917,63.237745 C 295.74193,63.237745 296.80492,62.564516 297.44272,61.21806 C 298.04508,59.800737 298.36398,57.462154 298.36398,54.166879 L 298.36398,54.166879 z M 293.54508,40.525146 C 297.54902,43.536957 301.34035,46.7968 304.88366,50.37554 C 305.06083,51.544831 305.16713,52.820422 305.16713,54.202312 L 305.16713,54.202312 L 305.16713,54.202312 C 305.16713,58.560579 304.21043,61.926721 302.33248,64.300737 C 301.26949,65.647194 299.95846,66.603887 298.39941,67.206249 L 298.39941,66.284989 L 291.91516,66.284989 L 289.39941,66.816485 C 288.19468,66.249556 287.16713,65.399162 286.2813,64.300737 C 284.40335,61.926721 283.44665,58.560579 283.44665,54.202312 C 283.44665,49.808611 284.40335,46.442469 286.2813,44.068454 C 288.05295,41.871603 290.4624,40.702312 293.54508,40.525146 z M 273.2065,54.166879 C 273.2065,50.83617 272.8876,48.53302 272.2498,47.186564 C 271.64744,45.840107 270.61988,45.166879 269.16713,45.166879 C 267.71437,45.166879 266.68681,45.840107 266.04902,47.186564 C 265.44665,48.53302 265.09232,50.83617 265.09232,54.166879 C 265.09232,57.462154 265.44665,59.800737 266.04902,61.21806 C 266.68681,62.564516 267.71437,63.237745 269.16713,63.237745 C 270.61988,63.237745 271.64744,62.564516 272.2498,61.21806 C 272.8876,59.800737 273.2065,57.462154 273.2065,54.166879 L 273.2065,54.166879 z M 279.97421,54.202312 C 279.97421,58.560579 279.05295,61.926721 277.175,64.300737 C 276.28917,65.399162 275.26161,66.249556 274.02146,66.851918 C 272.63957,66.17869 271.00965,65.824359 269.16713,65.824359 C 267.28917,65.824359 265.65925,66.17869 264.27736,66.851918 C 263.0372,66.249556 262.00965,65.399162 261.12382,64.300737 C 259.24587,61.926721 258.32461,58.560579 258.32461,54.202312 C 258.32461,49.808611 259.24587,46.442469 261.12382,44.068454 C 262.71831,42.084202 264.84429,40.91491 267.57264,40.596013 C 268.13957,40.666879 268.7065,40.737745 269.30886,40.737745 C 269.87579,40.737745 270.40728,40.702312 270.90335,40.631446 C 273.52539,40.985776 275.61594,42.119635 277.175,44.068454 C 279.05295,46.442469 279.97421,49.808611 279.97421,54.202312 L 279.97421,54.202312 z M 315.47815,174.46215 L 311.04902,175.41884 L 311.04902,170.77711 L 317.1435,169.50152 L 318.73799,169.50152 C 317.71043,171.20231 316.61201,172.86766 315.47815,174.46215 z M 286.03327,191.18656 L 292.02146,191.18656 L 292.02146,174.10782 L 285.8561,175.41884 L 285.8561,170.77711 L 291.98602,169.50152 L 298.47028,169.50152 L 298.47028,191.18656 L 300.70256,191.18656 C 298.86004,192.81648 296.98209,194.37554 295.03327,195.86372 L 286.03327,195.86372 L 286.03327,191.18656 z M 273.27736,182.68262 C 273.27736,179.35191 272.9939,177.04876 272.32067,175.70231 C 271.71831,174.32042 270.69075,173.64719 269.23799,173.64719 C 267.78524,173.64719 266.75768,174.32042 266.11988,175.70231 C 265.51752,177.04876 265.16319,179.35191 265.16319,182.68262 C 265.16319,186.01333 265.51752,188.35191 266.11988,189.69837 C 266.75768,191.08026 267.78524,191.75349 269.23799,191.75349 C 270.69075,191.75349 271.71831,191.08026 272.32067,189.69837 C 272.9939,188.35191 273.27736,186.01333 273.27736,182.68262 L 273.27736,182.68262 z M 280.04508,182.71805 C 280.04508,187.07632 279.12382,190.4779 277.24587,192.85191 C 275.36791,195.1905 272.675,196.35979 269.23799,196.35979 C 265.76555,196.35979 263.07264,195.1905 261.19468,192.85191 C 259.31673,190.4779 258.39547,187.07632 258.39547,182.71805 C 258.39547,178.32435 259.31673,174.99365 261.19468,172.5842 C 263.07264,170.21018 265.76555,169.04089 269.23799,169.04089 C 272.675,169.04089 275.36791,170.21018 277.24587,172.5842 C 279.12382,174.99365 280.04508,178.32435 280.04508,182.71805 L 280.04508,182.71805 z M 323.55689,157.34798 C 323.55689,154.0527 323.27342,151.71412 322.63563,150.36766 C 322.03327,149.0212 321.00571,148.34798 319.55295,148.34798 C 318.06476,148.34798 317.00177,149.0212 316.39941,150.36766 C 315.76161,151.71412 315.47815,154.0527 315.47815,157.34798 C 315.47815,160.67868 315.76161,163.01727 316.39941,164.39916 C 317.00177,165.74561 318.06476,166.41884 319.55295,166.41884 C 319.94272,166.41884 320.29705,166.38341 320.65138,166.27711 C 320.01358,167.37554 319.41122,168.43853 318.73799,169.50152 L 317.1435,169.50152 L 314.59232,170.03302 C 313.3876,169.43065 312.36004,168.61569 311.50965,167.51727 C 309.59626,165.14325 308.675,161.77711 308.675,157.38341 C 308.675,153.02514 309.59626,149.62357 311.50965,147.28498 C 313.3876,144.91097 316.04508,143.70624 319.55295,143.70624 C 322.98996,143.70624 325.64744,144.91097 327.56083,147.28498 C 327.84429,147.67475 328.12776,148.06451 328.37579,148.48971 C 326.9939,152.77711 325.36398,156.95821 323.41516,160.96215 C 323.52146,159.93459 323.55689,158.72987 323.55689,157.34798 L 323.55689,157.34798 z M 318.45453,169.96215 C 318.24193,170.31648 318.06476,170.63538 317.85216,170.95428 L 317.85216,170.95428 C 318.06476,170.63538 318.24193,170.31648 318.45453,169.96215 z M 286.03327,165.85191 L 292.02146,165.85191 L 292.02146,148.80861 L 285.8561,150.0842 L 285.8561,145.4779 L 291.98602,144.20231 L 298.47028,144.20231 L 298.47028,165.85191 L 304.4939,165.85191 L 304.4939,170.56451 L 298.47028,170.56451 L 298.47028,169.50152 L 291.98602,169.50152 L 286.88366,170.56451 L 286.03327,170.56451 L 286.03327,165.85191 z M 273.27736,157.34798 C 273.27736,154.0527 272.9939,151.71412 272.32067,150.36766 C 271.71831,149.0212 270.69075,148.34798 269.23799,148.34798 C 267.78524,148.34798 266.75768,149.0212 266.11988,150.36766 C 265.51752,151.71412 265.16319,154.0527 265.16319,157.34798 C 265.16319,160.67868 265.51752,163.01727 266.11988,164.39916 C 266.75768,165.74561 267.78524,166.41884 269.23799,166.41884 C 270.69075,166.41884 271.71831,165.74561 272.32067,164.39916 C 272.9939,163.01727 273.27736,160.67868 273.27736,157.34798 L 273.27736,157.34798 z M 280.04508,157.38341 C 280.04508,161.77711 279.12382,165.14325 277.24587,167.51727 C 276.36004,168.61569 275.33248,169.46609 274.09232,170.03302 C 272.71043,169.35979 271.08051,169.04089 269.23799,169.04089 C 267.36004,169.04089 265.73012,169.35979 264.34823,170.03302 C 263.10807,169.46609 262.08051,168.61569 261.19468,167.51727 C 259.31673,165.14325 258.39547,161.77711 258.39547,157.38341 C 258.39547,153.02514 259.31673,149.62357 261.19468,147.28498 C 263.07264,144.91097 265.76555,143.70624 269.23799,143.70624 C 272.675,143.70624 275.36791,144.91097 277.24587,147.28498 C 279.12382,149.62357 280.04508,153.02514 280.04508,157.38341 L 280.04508,157.38341 z M 311.19075,140.5527 L 317.17894,140.5527 L 317.17894,123.50939 L 311.04902,124.78498 L 311.04902,120.14325 L 317.1435,118.86766 L 323.59232,118.86766 L 323.59232,140.5527 L 329.61594,140.5527 L 329.61594,144.34404 C 329.54508,144.66294 329.43878,144.9464 329.36791,145.2653 L 325.32854,145.2653 C 323.73405,144.23774 321.82067,143.70624 319.55295,143.70624 C 317.2498,143.70624 315.30098,144.23774 313.7065,145.2653 L 311.19075,145.2653 L 311.19075,140.5527 z M 298.43484,132.04876 C 298.43484,128.71805 298.11594,126.41491 297.51358,125.06845 C 296.91122,123.72199 295.84823,123.04876 294.36004,123.04876 C 292.90728,123.04876 291.87972,123.72199 291.24193,125.06845 C 290.63957,126.41491 290.32067,128.71805 290.32067,132.04876 C 290.32067,135.34404 290.63957,137.71805 291.24193,139.09994 C 291.87972,140.4464 292.90728,141.11963 294.36004,141.11963 C 295.84823,141.11963 296.87579,140.4464 297.51358,139.09994 C 298.11594,137.71805 298.43484,135.34404 298.43484,132.04876 L 298.43484,132.04876 z M 305.23799,132.0842 C 305.23799,136.44246 304.2813,139.80861 302.40335,142.18262 C 301.34035,143.52908 300.02933,144.48577 298.47028,145.08813 L 298.47028,144.20231 L 291.98602,144.20231 L 289.47028,144.69837 C 288.26555,144.13144 287.23799,143.28105 286.35216,142.18262 C 284.47421,139.80861 283.51752,136.44246 283.51752,132.0842 C 283.51752,127.6905 284.47421,124.32435 286.35216,121.98577 C 288.26555,119.57632 290.92303,118.40703 294.36004,118.40703 C 297.86791,118.40703 300.52539,119.57632 302.40335,121.98577 C 304.2813,124.32435 305.23799,127.6905 305.23799,132.0842 L 305.23799,132.0842 z M 273.27736,132.04876 C 273.27736,128.71805 272.9939,126.41491 272.32067,125.06845 C 271.71831,123.72199 270.69075,123.04876 269.23799,123.04876 C 267.78524,123.04876 266.75768,123.72199 266.11988,125.06845 C 265.51752,126.41491 265.16319,128.71805 265.16319,132.04876 C 265.16319,135.34404 265.51752,137.71805 266.11988,139.09994 C 266.75768,140.4464 267.78524,141.11963 269.23799,141.11963 C 270.69075,141.11963 271.71831,140.4464 272.32067,139.09994 C 272.9939,137.71805 273.27736,135.34404 273.27736,132.04876 L 273.27736,132.04876 z M 280.04508,132.0842 C 280.04508,136.44246 279.12382,139.80861 277.24587,142.18262 C 276.36004,143.31648 275.33248,144.13144 274.09232,144.7338 C 272.71043,144.06057 271.08051,143.70624 269.23799,143.70624 C 267.36004,143.70624 265.73012,144.06057 264.34823,144.7338 C 263.10807,144.13144 262.08051,143.31648 261.19468,142.18262 C 259.31673,139.80861 258.39547,136.44246 258.39547,132.0842 C 258.39547,127.6905 259.31673,124.32435 261.19468,121.98577 C 262.89547,119.82435 265.19862,118.65506 268.175,118.44246 C 268.4939,118.47789 268.81279,118.47789 269.16713,118.47789 C 269.52146,118.47789 269.87579,118.47789 270.23012,118.44246 C 273.2065,118.65506 275.54508,119.82435 277.24587,121.98577 C 279.12382,124.32435 280.04508,127.6905 280.04508,132.0842 L 280.04508,132.0842 z M 264.87972,210.10782 C 264.87972,206.81254 265.19862,204.47396 265.83642,203.1275 C 266.47421,201.78105 267.50177,201.10782 268.95453,201.10782 C 270.40728,201.10782 271.43484,201.78105 272.07264,203.1275 C 272.60413,204.26136 272.8876,206.10388 272.9939,208.65506 C 275.15531,207.7338 277.31673,206.74168 279.40728,205.67868 C 278.98209,203.41097 278.16713,201.53302 276.99783,200.04483 C 275.11988,197.63538 272.39154,196.46609 268.95453,196.46609 C 265.48209,196.46609 262.82461,197.63538 260.94665,200.04483 C 259.0687,202.38341 258.11201,205.78498 258.11201,210.14325 L 258.11201,210.14325 L 258.11201,210.14325 C 258.11201,211.31254 258.14744,212.37554 258.28917,213.40309 C 260.52146,212.8716 262.75374,212.26924 264.91516,211.59601 C 264.91516,211.09994 264.87972,210.63931 264.87972,210.10782 L 264.87972,210.10782 z M 293.61594,196.92672 L 290.0372,196.92672 L 290.0372,199.4779 C 291.24193,198.66294 292.44665,197.81254 293.61594,196.92672 z M 251.62776,209.89522 C 251.62776,206.59994 251.30886,204.26136 250.7065,202.91491 C 250.0687,201.56845 249.04114,200.89522 247.55295,200.89522 C 246.1002,200.89522 245.07264,201.56845 244.43484,202.91491 C 243.83248,204.26136 243.51358,206.59994 243.51358,209.89522 C 243.51358,212.3401 243.69075,214.28892 244.00965,215.67081 C 241.88366,215.84798 239.68681,215.95428 237.48996,215.98971 C 236.99389,214.25349 236.71043,212.2338 236.71043,209.93065 C 236.71043,205.57239 237.66712,202.17081 239.50964,199.83223 C 241.42303,197.42278 244.11594,196.25349 247.55295,196.25349 C 251.02539,196.25349 253.68287,197.42278 255.59626,199.83223 C 257.01358,201.63931 257.93484,204.04876 258.28917,207.06057 C 258.14744,208.01727 258.11201,209.04483 258.11201,210.14325 L 258.11201,210.14325 L 258.11201,210.14325 C 258.11201,211.17081 258.14744,212.1275 258.25374,213.01333 C 258.21831,213.15506 258.21831,213.29679 258.18287,213.43853 C 255.91516,213.97002 253.61201,214.43065 251.27342,214.78498 C 251.52146,213.50939 251.62776,211.87947 251.62776,209.89522 L 251.62776,209.89522 z M 220.09232,214.74955 L 220.09232,201.35585 L 213.92696,202.63144 L 213.92696,198.02514 L 220.05688,196.71412 L 226.5057,196.71412 L 226.5057,215.59994 C 224.34429,215.38735 222.2183,215.10388 220.09232,214.74955 z M 201.31279,209.75349 C 201.31279,206.52908 200.99389,204.26136 200.39153,202.91491 C 199.78917,201.56845 198.72618,200.89522 197.27342,200.89522 C 195.82066,200.89522 194.79311,201.56845 194.11988,202.91491 C 193.76555,203.72987 193.51751,204.86372 193.37578,206.31648 C 191.3561,205.32435 189.37185,204.29679 187.42303,203.16294 C 187.88366,201.88735 188.48602,200.78892 189.26555,199.83223 C 191.1435,197.42278 193.80098,196.25349 197.27342,196.25349 C 200.74586,196.25349 203.43877,197.42278 205.31673,199.83223 C 207.15925,202.17081 208.11594,205.57239 208.11594,209.93065 L 208.11594,209.93065 L 208.11594,209.93065 C 208.11594,210.63931 208.11594,211.34798 208.04507,212.0212 C 205.77736,211.34798 203.54507,210.56845 201.31279,209.75349 z M 239.36791,191.08026 L 245.32067,191.08026 L 245.32067,174.00152 L 239.19074,175.31254 L 239.19074,170.67081 L 245.28524,169.39522 L 251.76949,169.39522 L 251.76949,191.08026 L 257.75768,191.08026 L 257.75768,195.75742 L 239.36791,195.75742 L 239.36791,191.08026 z M 214.175,191.08026 L 220.19862,191.08026 L 220.19862,174.00152 L 214.03326,175.31254 L 214.03326,170.67081 L 220.16318,169.39522 L 226.612,169.39522 L 226.612,191.08026 L 232.63563,191.08026 L 232.63563,195.75742 L 214.175,195.75742 L 214.175,191.08026 z M 189.05295,191.08026 L 195.04114,191.08026 L 195.04114,174.00152 L 188.87578,175.31254 L 188.87578,170.67081 L 195.0057,169.39522 L 201.48996,169.39522 L 201.48996,191.08026 L 207.47814,191.08026 L 207.47814,195.75742 L 189.05295,195.75742 L 189.05295,191.08026 z M 176.26161,182.54089 C 176.26161,179.24561 175.97814,176.94246 175.34035,175.59601 C 174.73799,174.21412 173.71043,173.54089 172.25767,173.54089 C 170.80492,173.54089 169.77736,174.21412 169.10413,175.59601 C 168.50177,176.94246 168.18287,179.24561 168.18287,182.54089 C 168.18287,185.8716 168.50177,188.21018 169.10413,189.55664 C 166.37578,187.00546 163.8246,184.31254 161.41515,181.44246 C 161.55688,177.61569 162.47814,174.63931 164.21437,172.4779 C 166.09232,170.10388 168.7498,168.93459 172.25767,168.93459 C 175.69468,168.93459 178.38759,170.10388 180.26555,172.4779 C 182.1435,174.85191 183.06476,178.21805 183.06476,182.61176 L 183.06476,182.61176 L 183.06476,182.61176 C 183.06476,186.97002 182.1435,190.3716 180.26555,192.74561 C 179.16712,194.09207 177.82066,195.0842 176.19074,195.65113 C 174.48996,194.30467 172.8246,192.92278 171.23011,191.50546 C 171.54901,191.57632 171.86791,191.64719 172.25767,191.64719 C 173.71043,191.64719 174.73799,190.97396 175.34035,189.59207 C 175.97814,188.24561 176.26161,185.90703 176.26161,182.54089 L 176.26161,182.54089 z M 251.73405,157.24168 C 251.73405,153.9464 251.41516,151.60782 250.81279,150.26136 C 250.175,148.91491 249.14744,148.24168 247.69468,148.24168 C 246.24193,148.24168 245.17894,148.91491 244.54114,150.26136 C 243.93878,151.60782 243.61988,153.9464 243.61988,157.24168 C 243.61988,160.57239 243.93878,162.91097 244.54114,164.29286 C 245.17894,165.63931 246.24193,166.31254 247.69468,166.31254 C 249.14744,166.31254 250.175,165.63931 250.77736,164.29286 C 251.41516,162.91097 251.73405,160.57239 251.73405,157.24168 L 251.73405,157.24168 z M 258.46634,159.47396 C 258.18287,162.80467 257.26161,165.46215 255.70256,167.41097 C 254.63957,168.72199 253.32854,169.67868 251.76949,170.28105 L 251.76949,169.39522 L 245.28524,169.39522 L 242.76949,169.92672 C 241.56476,169.32435 240.50177,168.47396 239.65137,167.41097 C 237.77342,165.03695 236.81673,161.67081 236.81673,157.27711 C 236.81673,152.91884 237.77342,149.51727 239.65137,147.17868 C 241.52933,144.80467 244.22224,143.59994 247.69468,143.59994 C 251.13169,143.59994 253.82461,144.80467 255.70256,147.17868 C 257.26161,149.1275 258.21831,151.82042 258.46634,155.18656 C 258.39547,155.89522 258.39547,156.63931 258.39547,157.38341 C 258.39547,158.1275 258.39547,158.80073 258.46634,159.47396 z M 226.57657,157.24168 C 226.57657,153.9464 226.29311,151.60782 225.65531,150.26136 C 225.05295,148.91491 224.02539,148.24168 222.5372,148.24168 C 221.08444,148.24168 220.02145,148.91491 219.41909,150.26136 C 218.78129,151.60782 218.49783,153.9464 218.49783,157.24168 C 218.49783,160.57239 218.78129,162.91097 219.41909,164.29286 C 220.02145,165.63931 221.08444,166.31254 222.5372,166.31254 C 223.98996,166.31254 225.05295,165.63931 225.65531,164.29286 C 226.29311,162.91097 226.57657,160.57239 226.57657,157.24168 L 226.57657,157.24168 z M 233.37972,157.27711 C 233.37972,161.67081 232.45846,165.03695 230.58051,167.41097 C 229.48208,168.75742 228.17106,169.71412 226.612,170.28105 L 226.612,169.39522 L 220.16318,169.39522 L 217.612,169.92672 C 216.40728,169.32435 215.37972,168.50939 214.49389,167.41097 C 212.61594,165.03695 211.69468,161.67081 211.69468,157.27711 C 211.69468,152.91884 212.61594,149.51727 214.49389,147.17868 C 216.40728,144.80467 219.06476,143.59994 222.5372,143.59994 C 226.00964,143.59994 228.66712,144.80467 230.58051,147.17868 C 232.45846,149.51727 233.37972,152.91884 233.37972,157.27711 L 233.37972,157.27711 z M 189.05295,165.74561 L 195.04114,165.74561 L 195.04114,148.70231 L 188.87578,149.9779 L 188.87578,145.3716 L 195.0057,144.06057 L 201.48996,144.06057 L 201.48996,165.74561 L 207.47814,165.74561 L 207.47814,170.45821 L 201.48996,170.45821 L 201.48996,169.39522 L 195.0057,169.39522 L 189.90334,170.45821 L 189.05295,170.45821 L 189.05295,165.74561 z M 176.26161,157.24168 C 176.26161,153.9464 175.97814,151.60782 175.34035,150.26136 C 174.73799,148.91491 173.71043,148.24168 172.25767,148.24168 C 170.80492,148.24168 169.77736,148.91491 169.10413,150.26136 C 168.50177,151.60782 168.18287,153.9464 168.18287,157.24168 C 168.18287,160.57239 168.50177,162.91097 169.10413,164.29286 C 169.77736,165.63931 170.80492,166.31254 172.25767,166.31254 C 173.71043,166.31254 174.73799,165.63931 175.34035,164.29286 C 175.97814,162.91097 176.26161,160.57239 176.26161,157.24168 L 176.26161,157.24168 z M 183.06476,157.27711 C 183.06476,161.67081 182.1435,165.03695 180.26555,167.41097 C 179.37972,168.50939 178.35216,169.35979 177.112,169.92672 C 175.73011,169.25349 174.10019,168.93459 172.25767,168.93459 C 170.37972,168.93459 168.7498,169.25349 167.36791,169.92672 C 166.12775,169.35979 165.10019,168.50939 164.21437,167.41097 C 162.33641,165.03695 161.37972,161.67081 161.37972,157.27711 C 161.37972,152.91884 162.33641,149.51727 164.21437,147.17868 C 166.09232,144.80467 168.7498,143.59994 172.25767,143.59994 C 175.69468,143.59994 178.38759,144.80467 180.26555,147.17868 C 182.1435,149.51727 183.06476,152.91884 183.06476,157.27711 L 183.06476,157.27711 z M 251.73405,131.94246 C 251.73405,128.61176 251.41516,126.30861 250.81279,124.96215 C 250.175,123.61569 249.14744,122.94246 247.69468,122.94246 C 246.24193,122.94246 245.17894,123.61569 244.54114,124.96215 C 243.93878,126.30861 243.61988,128.61176 243.61988,131.94246 C 243.61988,135.23774 243.93878,137.61176 244.54114,138.99365 C 245.17894,140.3401 246.24193,141.01333 247.69468,141.01333 C 249.14744,141.01333 250.175,140.3401 250.77736,138.99365 C 251.41516,137.61176 251.73405,135.23774 251.73405,131.94246 L 251.73405,131.94246 z M 258.46634,134.17475 C 258.18287,137.47002 257.26161,140.1275 255.70256,142.07632 C 254.81673,143.17475 253.78917,144.02514 252.54902,144.6275 C 251.16713,143.95428 249.5372,143.59994 247.69468,143.59994 C 245.85216,143.59994 244.22224,143.95428 242.80492,144.6275 C 241.56476,144.02514 240.50177,143.17475 239.65137,142.07632 C 237.77342,139.70231 236.81673,136.33617 236.81673,131.9779 C 236.81673,127.5842 237.77342,124.21805 239.65137,121.87947 C 241.52933,119.47002 244.22224,118.30073 247.69468,118.30073 C 251.13169,118.30073 253.82461,119.47002 255.70256,121.87947 C 257.26161,123.82829 258.21831,126.5212 258.46634,129.88735 C 258.39547,130.59601 258.39547,131.30467 258.39547,132.0842 C 258.39547,132.79286 258.39547,133.50152 258.46634,134.17475 z M 214.175,140.4464 L 220.19862,140.4464 L 220.19862,123.40309 L 214.03326,124.67868 L 214.03326,120.03695 L 220.16318,118.76136 L 226.612,118.76136 L 226.612,140.4464 L 232.63563,140.4464 L 232.63563,145.159 L 228.34822,145.159 C 226.75374,144.13144 224.80492,143.59994 222.5372,143.59994 C 220.26948,143.59994 218.32066,144.13144 216.72618,145.159 L 214.175,145.159 L 214.175,140.4464 z M 201.45452,131.94246 C 201.45452,128.61176 201.13563,126.30861 200.53326,124.96215 C 199.89547,123.61569 198.83248,122.94246 197.37972,122.94246 C 195.92696,122.94246 194.8994,123.61569 194.26161,124.96215 C 193.65925,126.30861 193.34035,128.61176 193.34035,131.94246 C 193.34035,135.23774 193.65925,137.61176 194.26161,138.99365 C 194.8994,140.3401 195.92696,141.01333 197.37972,141.01333 C 198.83248,141.01333 199.86003,140.3401 200.53326,138.99365 C 201.13563,137.61176 201.45452,135.23774 201.45452,131.94246 L 201.45452,131.94246 z M 208.25767,131.9779 C 208.25767,136.33617 207.26555,139.70231 205.42303,142.07632 C 204.36003,143.42278 203.04901,144.37947 201.48996,144.98183 L 201.48996,144.06057 L 195.0057,144.06057 L 192.45452,144.59207 C 191.28523,144.02514 190.25767,143.17475 189.37185,142.07632 C 187.49389,139.70231 186.5372,136.33617 186.5372,131.9779 C 186.5372,127.5842 187.49389,124.21805 189.37185,121.87947 C 191.2498,119.47002 193.94271,118.30073 197.37972,118.30073 C 200.88759,118.30073 203.54507,119.47002 205.42303,121.87947 C 207.26555,124.21805 208.25767,127.5842 208.25767,131.9779 L 208.25767,131.9779 z M 176.26161,131.94246 C 176.26161,128.61176 175.97814,126.30861 175.34035,124.96215 C 174.73799,123.61569 173.71043,122.94246 172.25767,122.94246 C 170.80492,122.94246 169.77736,123.61569 169.10413,124.96215 C 168.50177,126.30861 168.18287,128.61176 168.18287,131.94246 C 168.18287,135.23774 168.50177,137.61176 169.10413,138.99365 C 169.77736,140.3401 170.80492,141.01333 172.25767,141.01333 C 173.71043,141.01333 174.73799,140.3401 175.34035,138.99365 C 175.97814,137.61176 176.26161,135.23774 176.26161,131.94246 L 176.26161,131.94246 z M 183.06476,131.9779 C 183.06476,136.33617 182.1435,139.70231 180.26555,142.07632 C 179.37972,143.17475 178.35216,144.02514 177.112,144.6275 C 175.73011,143.95428 174.10019,143.59994 172.25767,143.59994 C 170.37972,143.59994 168.7498,143.95428 167.36791,144.6275 C 166.12775,144.02514 165.10019,143.17475 164.21437,142.07632 C 162.33641,139.70231 161.37972,136.33617 161.37972,131.9779 C 161.37972,127.5842 162.33641,124.21805 164.21437,121.87947 C 166.09232,119.47002 168.7498,118.30073 172.25767,118.30073 C 175.69468,118.30073 178.38759,119.47002 180.26555,121.87947 C 182.1435,124.21805 183.06476,127.5842 183.06476,131.9779 L 183.06476,131.9779 z M 239.40334,35.670816 L 245.39154,35.670816 L 245.39154,21.99365 C 247.55295,22.206249 249.71437,22.489713 251.84035,22.844044 L 251.84035,35.670816 L 257.82854,35.670816 L 257.82854,40.383414 L 239.40334,40.383414 L 239.40334,35.670816 z M 214.24586,35.670816 L 220.26948,35.670816 L 220.26948,22.773178 C 222.36003,22.418847 224.52145,22.135382 226.64744,21.958217 L 226.64744,35.670816 L 232.67106,35.670816 L 232.67106,40.383414 L 214.24586,40.383414 L 214.24586,35.670816 z M 189.12381,35.670816 L 195.07657,35.670816 L 195.07657,30.426721 C 197.20255,29.470028 199.32854,28.548768 201.52539,27.733808 L 201.52539,35.670816 L 207.54901,35.670816 L 207.54901,40.383414 L 189.12381,40.383414 L 189.12381,35.670816 z M 161.66318,181.72593 C 158.33248,177.82829 155.32066,173.64719 152.62775,169.25349 C 155.2498,169.60782 157.34035,170.74168 158.86397,172.6905 C 160.31673,174.53302 161.20255,176.90703 161.52145,179.84798 C 161.48602,180.37947 161.45059,180.91097 161.41515,181.44246 L 161.66318,181.72593 z M 146.81673,157.45428 C 146.81673,154.159 147.10019,151.82042 147.73799,150.47396 C 148.34035,149.1275 149.36791,148.45428 150.82066,148.45428 C 152.27342,148.45428 153.33641,149.1275 153.97421,150.47396 C 154.57657,151.82042 154.89547,154.159 154.89547,157.45428 C 154.89547,160.78498 154.57657,163.12357 153.97421,164.50546 C 153.33641,165.78105 152.37972,166.45428 151.03326,166.52514 C 151.56476,167.4464 152.09625,168.36766 152.62775,169.25349 C 153.76161,169.39522 154.78917,169.71412 155.74586,170.13931 C 156.95059,169.57239 158.01358,168.72199 158.86397,167.62357 C 160.35216,165.78105 161.23799,163.30073 161.55688,160.21805 C 161.45059,159.29679 161.37972,158.3401 161.37972,157.27711 C 161.37972,156.32042 161.45059,155.39916 161.52145,154.54876 C 161.20255,151.57239 160.31673,149.16294 158.86397,147.39128 C 156.98602,145.01727 154.32854,143.81254 150.82066,143.81254 C 147.38366,143.81254 144.69074,145.01727 142.81279,147.39128 L 142.81279,147.39128 C 143.94665,151.07632 145.25767,154.65506 146.81673,158.09207 C 146.81673,157.87947 146.81673,157.66687 146.81673,157.45428 L 146.81673,157.45428 z M 146.81673,132.15506 C 146.81673,128.82435 147.10019,126.5212 147.73799,125.17475 C 148.34035,123.82829 149.36791,123.15506 150.82066,123.15506 C 152.27342,123.15506 153.33641,123.82829 153.97421,125.17475 C 154.57657,126.5212 154.89547,128.82435 154.89547,132.15506 C 154.89547,135.45034 154.57657,137.82435 153.97421,139.20624 C 153.33641,140.5527 152.27342,141.22593 150.82066,141.22593 C 149.36791,141.22593 148.34035,140.5527 147.73799,139.20624 C 147.10019,137.82435 146.81673,135.45034 146.81673,132.15506 L 146.81673,132.15506 z M 140.01358,132.1905 C 140.01358,136.54876 140.93484,139.91491 142.81279,142.28892 C 143.69862,143.38735 144.72618,144.23774 145.96633,144.8401 C 147.34822,144.16687 148.97814,143.81254 150.82066,143.81254 C 152.69862,143.81254 154.32854,144.16687 155.74586,144.8401 C 156.95059,144.23774 158.01358,143.38735 158.86397,142.28892 C 160.35216,140.4464 161.23799,138.00152 161.55688,134.91884 C 161.45059,133.99758 161.37972,133.00546 161.37972,131.9779 C 161.37972,131.0212 161.45059,130.09994 161.52145,129.24955 C 161.20255,126.27317 160.31673,123.86372 158.86397,122.09207 C 156.98602,119.68262 154.32854,118.51333 150.82066,118.51333 C 147.38366,118.51333 144.69074,119.68262 142.81279,122.09207 C 140.93484,124.43065 140.01358,127.79679 140.01358,132.1905 L 140.01358,132.1905 z M 142.67106,113.30466 L 148.65925,113.30466 L 148.65925,96.225939 L 142.49389,97.501529 L 142.49389,92.895229 L 148.62381,91.619639 L 155.10807,91.619639 L 155.10807,113.30466 L 161.06082,113.30466 L 161.06082,117.98183 L 142.67106,117.98183 L 142.67106,113.30466 z M 155.07263,79.466091 C 155.07263,76.170816 154.75374,73.832233 154.15137,72.485776 C 153.54901,71.245619 152.62775,70.572391 151.35216,70.466091 C 152.16712,69.013335 153.05295,67.596013 153.97421,66.17869 C 156.02933,66.674753 157.69468,67.737745 159.0057,69.403099 C 160.88366,71.741682 161.87578,75.107824 161.87578,79.501524 L 161.87578,79.501524 L 161.87578,79.501524 C 161.87578,83.895225 160.88366,87.261367 159.0057,89.599949 C 157.94271,90.946409 156.63169,91.903099 155.10807,92.505459 L 155.10807,91.619639 L 148.62381,91.619639 L 146.07263,92.151129 C 144.86791,91.548769 143.84035,90.733809 142.95452,89.635379 C 144.08838,86.021209 145.43484,82.548768 146.95846,79.147194 L 146.95846,79.466091 C 146.95846,82.761367 147.27736,85.135383 147.87972,86.517272 C 148.51751,87.863729 149.54507,88.536959 150.99783,88.536959 C 152.45059,88.536959 153.47814,87.863729 154.11594,86.517272 C 154.75374,85.135383 155.07263,82.761367 155.07263,79.466091 L 155.07263,79.466091 z M 153.97421,66.17869 C 156.34822,62.458217 158.97027,58.950343 161.84035,55.619635 C 161.62775,59.304674 160.70649,62.174753 159.0057,64.300737 C 158.11988,65.399162 157.09232,66.249556 155.88759,66.851918 C 155.28523,66.568454 154.64744,66.320422 153.97421,66.17869 z M 239.33248,113.37553 L 245.28524,113.37553 L 245.28524,96.296799 L 239.15531,97.572389 L 239.15531,92.966089 L 245.2498,91.690499 L 251.73405,91.690499 L 251.73405,113.37553 L 257.72224,113.37553 L 257.72224,118.0527 L 239.33248,118.0527 L 239.33248,113.37553 z M 214.13956,113.37553 L 220.16318,113.37553 L 220.16318,96.296799 L 213.99783,97.572389 L 213.99783,92.966089 L 220.12775,91.690499 L 226.57657,91.690499 L 226.57657,113.37553 L 232.60019,113.37553 L 232.60019,118.0527 L 214.13956,118.0527 L 214.13956,113.37553 z M 189.01751,113.37553 L 195.0057,113.37553 L 195.0057,96.296799 L 188.84035,97.572389 L 188.84035,92.966089 L 194.97027,91.690499 L 201.45452,91.690499 L 201.45452,113.37553 L 207.47814,113.37553 L 207.47814,118.0527 L 189.01751,118.0527 L 189.01751,113.37553 z M 176.22618,104.83616 C 176.22618,101.54089 175.94271,99.237749 175.30492,97.855859 C 174.70255,96.509399 173.675,95.836169 172.22224,95.836169 C 170.76948,95.836169 169.74192,96.509399 169.0687,97.855859 C 168.46633,99.237749 168.14744,101.54089 168.14744,104.83616 C 168.14744,108.2023 168.46633,110.54088 169.0687,111.88734 C 169.74192,113.2338 170.76948,113.94246 172.22224,113.94246 C 173.675,113.94246 174.70255,113.2338 175.30492,111.88734 C 175.94271,110.54088 176.22618,108.2023 176.22618,104.83616 L 176.22618,104.83616 z M 183.02933,104.87159 C 183.02933,109.26529 182.10807,112.63144 180.23011,115.04088 C 178.70649,116.91884 176.65137,118.0527 174.10019,118.44246 C 173.53326,118.33616 172.89547,118.30073 172.25767,118.30073 C 171.58444,118.30073 170.94665,118.33616 170.34429,118.44246 C 167.75767,118.08813 165.70255,116.95427 164.17893,115.04088 C 162.30098,112.63144 161.34429,109.26529 161.34429,104.87159 C 161.34429,100.51333 162.30098,97.147199 164.17893,94.773179 C 166.05688,92.399159 168.71437,91.229869 172.22224,91.229869 C 175.65925,91.229869 178.35216,92.399159 180.23011,94.773179 C 182.10807,97.147199 183.02933,100.51333 183.02933,104.87159 L 183.02933,104.87159 z M 251.69862,79.536957 C 251.69862,76.241682 251.37972,73.903099 250.77736,72.556642 C 250.13957,71.210186 249.11201,70.536957 247.65925,70.536957 C 246.2065,70.536957 245.1435,71.210186 244.50571,72.556642 C 243.90335,73.903099 243.58445,76.241682 243.58445,79.536957 C 243.58445,82.832233 243.90335,85.206249 244.50571,86.588139 C 245.1435,87.934599 246.2065,88.607829 247.65925,88.607829 C 249.11201,88.607829 250.13957,87.934599 250.74193,86.588139 C 251.37972,85.206249 251.69862,82.832233 251.69862,79.536957 L 251.69862,79.536957 z M 258.39547,81.910973 C 258.11201,85.170816 257.19075,87.757429 255.66713,89.670819 C 254.60413,91.017269 253.29311,91.973969 251.73405,92.576329 L 251.73405,91.690499 L 245.2498,91.690499 L 242.73405,92.221999 C 241.52933,91.619639 240.46634,90.769239 239.61594,89.670819 C 237.73799,87.332233 236.78129,83.966091 236.78129,79.572391 C 236.78129,75.17869 237.73799,71.812548 239.61594,69.473965 C 241.4939,67.064516 244.18681,65.895225 247.65925,65.895225 C 251.09626,65.895225 253.78917,67.064516 255.66713,69.473965 C 257.19075,71.351918 258.11201,73.938532 258.39547,77.162942 C 258.32461,77.907036 258.32461,78.686564 258.32461,79.501524 C 258.32461,80.351918 258.36004,81.131446 258.39547,81.910973 z M 226.54114,79.536957 C 226.54114,76.241682 226.25767,73.903099 225.61988,72.556642 C 225.01751,71.210186 223.98996,70.536957 222.50177,70.536957 C 221.04901,70.536957 219.98602,71.210186 219.38366,72.556642 C 218.74586,73.903099 218.4624,76.241682 218.4624,79.536957 C 218.4624,82.832233 218.74586,85.206249 219.38366,86.588139 C 219.98602,87.934599 221.04901,88.607829 222.50177,88.607829 C 223.95452,88.607829 225.01751,87.934599 225.61988,86.588139 C 226.25767,85.206249 226.54114,82.832233 226.54114,79.536957 L 226.54114,79.536957 z M 233.34429,79.572391 C 233.34429,83.966091 232.42303,87.332233 230.54507,89.670819 C 229.44665,91.017269 228.13563,92.009399 226.57657,92.576329 L 226.57657,91.690499 L 220.12775,91.690499 L 217.57657,92.221999 C 216.37185,91.619639 215.34429,90.769239 214.45846,89.670819 C 212.58051,87.332233 211.65925,83.966091 211.65925,79.572391 C 211.65925,75.17869 212.58051,71.812548 214.45846,69.473965 C 216.37185,67.064516 219.02933,65.895225 222.50177,65.895225 C 225.97421,65.895225 228.63169,67.064516 230.54507,69.473965 C 232.42303,71.812548 233.34429,75.17869 233.34429,79.572391 L 233.34429,79.572391 z M 189.01751,88.040899 L 195.0057,88.040899 L 195.0057,70.997587 L 188.84035,72.273178 L 188.84035,67.631446 L 194.97027,66.355855 L 201.45452,66.355855 L 201.45452,88.040899 L 207.47814,88.040899 L 207.47814,92.753489 L 201.45452,92.753489 L 201.45452,91.690499 L 194.97027,91.690499 L 189.86791,92.753489 L 189.01751,92.753489 L 189.01751,88.040899 z M 176.22618,79.536957 C 176.22618,76.241682 175.94271,73.903099 175.30492,72.556642 C 174.70255,71.210186 173.675,70.536957 172.22224,70.536957 C 170.76948,70.536957 169.74192,71.210186 169.0687,72.556642 C 168.46633,73.903099 168.14744,76.241682 168.14744,79.536957 C 168.14744,82.832233 168.46633,85.206249 169.0687,86.588139 C 169.74192,87.934599 170.76948,88.607829 172.22224,88.607829 C 173.675,88.607829 174.70255,87.934599 175.30492,86.588139 C 175.94271,85.206249 176.22618,82.832233 176.22618,79.536957 L 176.22618,79.536957 z M 183.02933,79.572391 C 183.02933,83.966091 182.10807,87.332233 180.23011,89.670819 C 179.34429,90.804679 178.31673,91.655069 177.07657,92.221999 C 175.69468,91.548769 174.06476,91.229869 172.22224,91.229869 C 170.34429,91.229869 168.71437,91.548769 167.33248,92.221999 C 166.09232,91.655069 165.06476,90.804679 164.17893,89.670819 C 162.83248,88.040899 161.98208,85.844044 161.59232,83.186564 C 161.76948,82.052705 161.87578,80.812548 161.87578,79.501524 L 161.87578,79.501524 L 161.87578,79.501524 C 161.87578,78.225934 161.76948,77.021209 161.62775,75.887351 C 162.01751,73.265304 162.86791,71.103887 164.17893,69.473965 C 166.05688,67.064516 168.71437,65.895225 172.22224,65.895225 C 175.65925,65.895225 178.35216,67.064516 180.23011,69.473965 C 182.10807,71.812548 183.02933,75.17869 183.02933,79.572391 L 183.02933,79.572391 z M 251.69862,54.237745 C 251.69862,50.907036 251.37972,48.603887 250.77736,47.25743 C 250.13957,45.910973 249.11201,45.237745 247.65925,45.237745 C 246.2065,45.237745 245.1435,45.910973 244.50571,47.25743 C 243.90335,48.603887 243.58445,50.907036 243.58445,54.237745 C 243.58445,57.53302 243.90335,59.871603 244.50571,61.288926 C 245.1435,62.635383 246.2065,63.308611 247.65925,63.308611 C 249.11201,63.308611 250.13957,62.635383 250.74193,61.288926 C 251.37972,59.871603 251.69862,57.53302 251.69862,54.237745 L 251.69862,54.237745 z M 258.39547,56.576328 C 258.11201,59.83617 257.19075,62.422784 255.66713,64.371603 C 254.7813,65.470028 253.75374,66.320422 252.51358,66.922784 C 251.13169,66.249556 249.50177,65.895225 247.65925,65.895225 C 245.81673,65.895225 244.18681,66.249556 242.76949,66.922784 C 241.52933,66.320422 240.46634,65.470028 239.61594,64.371603 C 237.73799,61.997587 236.78129,58.631446 236.78129,54.273178 C 236.78129,49.879477 237.73799,46.513335 239.61594,44.13932 C 241.4939,41.765304 244.18681,40.596013 247.65925,40.596013 C 251.09626,40.596013 253.78917,41.765304 255.66713,44.13932 C 257.19075,46.052705 258.11201,48.63932 258.39547,51.863729 C 258.32461,52.607824 258.32461,53.387351 258.32461,54.202312 C 258.32461,55.017272 258.36004,55.832233 258.39547,56.576328 z M 214.13956,62.741682 L 220.16318,62.741682 L 220.16318,45.698375 L 213.99783,46.973965 L 213.99783,42.332233 L 220.12775,41.056642 L 226.57657,41.056642 L 226.57657,62.741682 L 232.60019,62.741682 L 232.60019,67.418847 L 228.31279,67.418847 C 226.7183,66.426721 224.76948,65.895225 222.50177,65.895225 C 220.23405,65.895225 218.28523,66.426721 216.69074,67.418847 L 214.13956,67.418847 L 214.13956,62.741682 z M 201.41909,54.237745 C 201.41909,50.907036 201.10019,48.603887 200.49783,47.25743 C 199.89547,45.910973 198.79704,45.237745 197.34429,45.237745 C 195.89153,45.237745 194.86397,45.910973 194.22618,47.25743 C 193.62381,48.603887 193.30492,50.907036 193.30492,54.237745 C 193.30492,57.53302 193.62381,59.871603 194.22618,61.288926 C 194.86397,62.635383 195.89153,63.308611 197.34429,63.308611 C 198.79704,63.308611 199.8246,62.635383 200.49783,61.288926 C 201.10019,59.871603 201.41909,57.53302 201.41909,54.237745 L 201.41909,54.237745 z M 208.22224,54.273178 C 208.22224,58.631446 207.23011,61.997587 205.38759,64.371603 C 204.3246,65.71806 203.01358,66.674753 201.45452,67.277115 L 201.45452,66.355855 L 194.97027,66.355855 L 192.41909,66.887351 C 191.2498,66.320422 190.22224,65.470028 189.33641,64.371603 C 187.45846,61.997587 186.50177,58.631446 186.50177,54.273178 C 186.50177,49.879477 187.45846,46.513335 189.33641,44.13932 C 191.21437,41.765304 193.90728,40.596013 197.34429,40.596013 C 200.85216,40.596013 203.50964,41.765304 205.38759,44.13932 C 207.23011,46.513335 208.22224,49.879477 208.22224,54.273178 L 208.22224,54.273178 z M 176.22618,54.237745 C 176.22618,50.907036 175.94271,48.603887 175.30492,47.25743 C 174.70255,45.910973 173.675,45.237745 172.22224,45.237745 L 172.15137,45.237745 C 173.63956,43.926721 175.19862,42.686564 176.79311,41.481839 C 178.13956,42.048768 179.27342,42.934595 180.23011,44.13932 C 182.10807,46.513335 183.02933,49.879477 183.02933,54.273178 L 183.02933,54.273178 L 183.02933,54.273178 C 183.02933,58.631446 182.10807,61.997587 180.23011,64.371603 C 179.34429,65.470028 178.31673,66.320422 177.07657,66.922784 C 175.69468,66.249556 174.06476,65.895225 172.22224,65.895225 C 170.34429,65.895225 168.71437,66.249556 167.33248,66.922784 C 166.09232,66.320422 165.06476,65.470028 164.17893,64.371603 C 162.83248,62.706249 161.98208,60.509398 161.59232,57.851918 C 161.69862,57.143257 161.76948,56.399162 161.84035,55.619635 C 164.00177,53.068454 166.30492,50.659005 168.71437,48.355855 C 168.36003,49.737745 168.14744,51.686564 168.14744,54.237745 C 168.14744,57.53302 168.46633,59.871603 169.0687,61.288926 C 169.74192,62.635383 170.76948,63.308611 172.22224,63.308611 C 173.675,63.308611 174.70255,62.635383 175.30492,61.288926 C 175.94271,59.871603 176.22618,57.53302 176.22618,54.237745 L 176.22618,54.237745 z M 293.08445,40.206249 L 286.10413,40.206249 L 286.10413,35.564516 C 288.51358,37.017272 290.85216,38.576328 293.08445,40.206249 z"
         id="path4409"
         style="opacity:0.36000001;fill:#23282b;fill-opacity:1;fill-rule:evenodd;stroke:#23282b;stroke-width:0.28346458px;stroke-linejoin:round;stroke-dasharray:none;stroke-opacity:1;display:inline" />
    </g>
  </g>
  <g
     inkscape:label="MagnifyingGlass"
     inkscape:groupmode="layer"
     id="layer1"
     sodipodi:insensitive="true"
     style="display:block">
    <g
       id="g2489"
       style="display:block">
      <g
         id="g1774"
         transform="matrix(0.707107,0.707107,-0.707107,0.707107,161.6029,-155.8874)">
        <path
           style="fill:url(#linearGradient1777);fill-opacity:1.0000000;stroke:#000000;stroke-width:6.2500000;stroke-linecap:butt;stroke-linejoin:miter;stroke-miterlimit:4.0000000;stroke-opacity:1.0000000"
           d="M 248.03125,35.437500 C 189.35409,35.437500 141.71875,83.041586 141.71875,141.71875 C 141.71875,194.34560 180.07689,237.97584 230.31250,246.43750 L 230.31250,283.46875 L 265.75000,283.46875 L 265.75000,246.43750 C 315.98562,237.97584 354.34377,194.34560 354.34375,141.71875 C 354.34375,83.041586 306.70841,35.437500 248.03125,35.437500 z M 248.03125,53.156250 C 296.92889,53.156250 336.62500,92.821111 336.62500,141.71875 C 336.62501,190.61639 296.92889,230.31250 248.03125,230.31250 C 199.13361,230.31251 159.43750,190.61639 159.43750,141.71875 C 159.43749,92.821111 199.13361,53.156250 248.03125,53.156250 z "
           id="path1736" />
        <rect
           style="fill:url(#linearGradient1778);fill-opacity:1.0000000;stroke:url(#linearGradient1779);stroke-width:7.6123056;stroke-linecap:butt;stroke-linejoin:round;stroke-miterlimit:4.0000000;stroke-opacity:1.0000000"
           id="rect1762"
           width="70.866142"
           height="157.65280"
           x="212.59842"
           y="280.64615"
           rx="20.000000"
           ry="20.000000" />
      </g>
      <path
         sodipodi:type="arc"
         style="fill:url(#radialGradient2415);fill-opacity:1.0000000;stroke:none;stroke-width:6.2500000;stroke-linecap:butt;stroke-linejoin:round;stroke-miterlimit:4.0000000;stroke-opacity:1.0000000"
         id="path2410"
         sodipodi:cx="212.59842"
         sodipodi:cy="70.866119"
         sodipodi:rx="35.433071"
         sodipodi:ry="35.433071"
         d="M 248.03149 70.866119 A 35.433071 35.433071 0 1 1  177.16535,70.866119 A 35.433071 35.433071 0 1 1  248.03149 70.866119 z"
         transform="matrix(0.933079,0.000000,0.000000,0.933079,15.92121,6.436221)" />
      <path
         style="fill:url(#linearGradient2422);fill-opacity:1.0000000;stroke:none;stroke-width:6.2500000;stroke-linecap:butt;stroke-linejoin:round;stroke-miterlimit:4.0000000;stroke-opacity:1.0000000"
         d="M 315.06250,109.37500 C 299.69703,151.44950 259.43408,181.56250 212.06250,181.56250 C 203.41775,181.56250 195.03901,180.45504 186.96875,178.56250 C 200.72010,191.72641 219.31873,199.87500 239.84375,199.87500 C 282.10327,199.87500 316.40626,165.57202 316.40625,123.31250 C 316.40625,118.55128 315.89556,113.89642 315.06250,109.37500 z "
         id="path2416" />
    </g>
  </g>
</svg>
